<?xml version="1.0" encoding="UTF-8"?>
<!DOCTYPE svg PUBLIC "-//W3C//DTD SVG 1.1//EN" "http://www.w3.org/Graphics/SVG/1.1/DTD/svg11.dtd">
<!-- Creator: CorelDRAW -->
<svg xmlns="http://www.w3.org/2000/svg" xml:space="preserve" width="38.9693mm" height="18.2734mm" version="1.1" style="shape-rendering:geometricPrecision; text-rendering:geometricPrecision; image-rendering:optimizeQuality; fill-rule:evenodd; clip-rule:evenodd"
viewBox="0 0 3883.78 1821.18"
 xmlns:xlink="http://www.w3.org/1999/xlink"
 xmlns:xodm="http://www.corel.com/coreldraw/odm/2003">
 <defs>
  <style type="text/css">
   <![CDATA[
    .fil1 {fill:#218BE1}
    .fil0 {fill:black;fill-rule:nonzero}
   ]]>
  </style>
 </defs>
 <g id="Camada_x0020_1">
  <metadata id="CorelCorpID_0Corel-Layer"/>
  <g id="_2155816617840">
   <path class="fil0" d="M3403.95 1452.32c-66.29,0.15 -127.23,-16.55 -182.82,-50.11 -55.59,-33.55 -99.96,-79.15 -133.11,-136.82 -33.14,-57.64 -49.71,-120.69 -49.71,-189.11 0,-74.84 19.24,-145.19 57.73,-211.02 38.49,-65.84 89.54,-118.08 153.15,-156.71 63.61,-38.63 131.24,-58.01 202.86,-58.17 66.29,-0.15 127.5,16.54 183.63,50.09 56.12,33.56 100.49,79.16 133.1,136.82 32.61,57.66 48.91,120.7 48.91,189.13 0,75.9 -18.98,146.51 -56.93,211.81 -37.96,65.31 -88.74,117.26 -152.35,155.89 -63.61,38.64 -131.76,58.03 -204.47,58.19zm14.43 -205.31c36.35,-0.08 69.49,-10.31 99.43,-30.69 29.93,-20.38 53.72,-47.16 71.36,-80.34 17.64,-33.19 26.46,-68.49 26.46,-105.91 0,-52.38 -15.77,-96.18 -47.31,-131.4 -31.53,-35.2 -74.03,-52.75 -127.49,-52.63 -29.94,0.07 -58.27,10.02 -84.99,29.85 -26.73,19.84 -48.12,46.62 -64.15,80.34 -16.04,33.71 -24.06,69.28 -24.06,106.7 0,52.38 13.36,96.18 40.09,131.41 26.73,35.22 63.61,52.78 110.66,52.67z"/>
   <path class="fil0" d="M3075.68 651.69c17.13,1.13 28.47,5.12 34.01,12.03 5.56,6.9 6.53,19.25 2.92,37.07 -1.13,5.55 -5.05,19.24 -11.78,41.07l-281.81 826.09c-23.1,74.13 -53.8,131.39 -92.07,171.78 -38.28,40.4 -89.44,65.77 -153.46,76.11 -64.02,10.34 -145.55,5.6 -244.56,-14.22 -61.19,-12.26 -112.47,-29.18 -153.82,-50.79 -41.36,-21.59 -59.9,-42.96 -55.61,-64.11 1.57,-7.79 6.6,-15.48 15.08,-23.04l84.01 -80.46c17.4,-11.58 32,-19.37 43.8,-23.37 11.81,-4.01 28.28,-3.9 49.42,0.34 17.8,3.56 41.04,11.69 69.72,24.38 23.35,10.47 48.39,18.39 75.08,23.73 45.62,9.14 78.58,5.02 98.88,-12.34 20.3,-17.36 34.71,-41.4 43.25,-72.13l19.53 -70.79c-37.4,1.77 -76.68,-1.46 -117.85,-9.7 -61.19,-12.26 -113,-39.43 -155.41,-81.5 -42.42,-42.09 -71.57,-93.95 -87.44,-155.62 -15.89,-61.67 -16.95,-126.44 -3.22,-194.34 2.26,-11.13 6.75,-27.62 13.48,-49.42 22.88,-73.02 61.09,-137.46 114.65,-193.33 53.57,-55.87 114.16,-96.43 181.78,-121.69 67.62,-25.25 133.15,-31.53 196.56,-18.84 47.84,9.58 77.77,16.16 89.78,19.71 10.49,-11.8 25.86,-16.25 46.11,-13.34l178.95 16.71zm-586.48 323.82c-6.72,16.03 -11.77,32.39 -15.15,49.08 -10.59,52.31 -5.92,100.74 14.01,145.26 19.93,44.53 53.25,71.48 99.98,80.84 25.59,5.12 54.75,4.01 87.49,-3.34l110.48 -391.35c-26.03,-8.69 -46.83,-14.58 -62.42,-17.7 -25.57,-5.12 -53.64,-3.8 -84.15,4 -30.53,7.78 -59.39,23.13 -86.61,46.06 -27.21,22.92 -48.43,51.97 -63.64,87.15z"/>
   <path class="fil0" d="M1909.29 653.84c111.18,-0.25 187.89,37.26 230.13,112.55 42.23,75.28 63.35,173.31 63.35,294.12 0,38.49 -3.75,103.71 -11.23,195.68 -2.13,17.1 -4.28,48.12 -6.41,93.03 -1.08,24.6 -2.41,41.44 -4.02,50.53 -1.6,9.09 -5.88,16.05 -12.83,20.87 -6.95,4.83 -18.98,9.4 -36.08,13.71l-109.05 21.1c-12.84,2.17 -20.85,3.25 -24.06,3.26 -18.18,0.04 -29.4,-5.54 -33.68,-16.76 -4.28,-11.21 -6.69,-25.64 -7.22,-43.28 -0.54,-17.64 -0.81,-29.67 -0.81,-36.09 2.14,-49.17 5.35,-97.3 9.63,-144.35 1.07,-19.24 2.67,-46.5 4.81,-81.79 2.13,-35.28 3.2,-64.69 3.2,-88.21 0,-57.73 -6.68,-101.55 -20.04,-131.46 -13.36,-29.91 -37.68,-44.83 -72.96,-44.75 -28.87,0.07 -54.27,7.09 -76.18,21.02 -21.92,13.95 -37.68,44.46 -47.31,91.52l-41.69 378.56c-1.08,5.36 -2.14,14.71 -3.21,28.07 -1.07,13.36 -6.15,23.81 -15.24,31.31 -9.09,7.5 -24.32,12.88 -45.71,16.14l-126.69 17.92c-16.04,2.18 -26.19,-1.54 -30.47,-11.15 -4.28,-9.62 -5.34,-32.07 -3.21,-67.35l30.47 -684.84c1.08,-25.65 4.29,-44.11 9.63,-55.34 5.34,-11.23 19.24,-17.95 41.7,-20.13l182.81 -18.06c13.9,-2.17 23.79,-0.59 29.67,4.74 5.88,5.33 8.82,16.55 8.82,33.66 0,5.35 -1.07,16.57 -3.21,33.7 38.49,-11.85 77.52,-17.82 117.07,-17.91z"/>
   <path class="fil0" d="M1458.79 654.84c13.9,-2.17 23.79,-0.32 29.67,5.55 5.88,5.86 8.82,17.89 8.82,36.06 0,5.35 -1.07,17.64 -3.21,36.9l-75.36 630.41c0,3.21 -1.08,12.04 -3.21,26.47 -2.14,14.44 -8.02,25.68 -17.64,33.72 -9.63,8.04 -24.06,13.16 -43.3,15.34l-126.69 17.92c-14.97,2.18 -24.59,-0.21 -28.86,-7.15 -4.28,-6.94 -6.42,-23.24 -6.42,-48.9 -44.9,17.2 -91.94,25.87 -141.12,25.98 -111.19,0.25 -187.89,-35.13 -230.13,-106.13 -42.23,-71.01 -63.35,-163.71 -63.35,-278.1 0,-35.28 3.75,-97.84 11.23,-187.66 2.13,-17.1 4.28,-48.12 6.41,-93.02 2.14,-31.01 6.42,-51.6 12.84,-61.77 6.41,-10.18 21.92,-17.96 46.5,-23.36l60.94 -9.76 75.36 -11.39c6.42,-1.09 14.44,-1.63 24.06,-1.65 17.1,-0.04 28.86,4.21 35.28,12.75 6.42,8.53 9.63,21.9 9.63,40.07 0,6.41 -1.08,20.31 -3.21,41.69l-14.43 91.44c-7.48,44.93 -14.17,89.32 -20.05,133.16 -5.88,43.84 -8.82,79.67 -8.82,107.47 0,41.7 6.42,73.49 19.24,95.38 12.83,21.89 34.74,32.8 65.75,32.73 35.28,-0.08 64.95,-11.11 89.01,-33.08 24.06,-21.98 38.22,-69.85 42.5,-143.62l14.43 -283.89c1.08,-25.65 4.28,-44.11 9.63,-55.34 5.34,-11.23 19.24,-17.95 41.69,-20.13l182.82 -18.06z"/>
   <path class="fil0" d="M34.74 1459.87c-16.04,2.18 -26.19,-1.54 -30.47,-11.15 -4.28,-9.62 -5.34,-32.06 -3.21,-67.35l48.11 -951.09c0,-3.21 0.27,-12.3 0.81,-27.26 0.54,-14.97 4.81,-26.47 12.83,-34.51 8.02,-8.03 20.05,-12.6 36.09,-13.71l174.8 -18.03c12.83,-2.16 22.18,-0.32 28.07,5.54 5.88,5.87 8.82,16.82 8.82,32.86l-3.21 40.1 -51.32 348.12c-1.07,5.34 -1.6,12.29 -1.6,20.84 0,18.18 9.63,27.25 28.86,27.21l160.38 -0.36c26.72,-0.06 41.16,-19.88 43.29,-59.44l16.04 -322.38c1.08,-18.18 2.41,-31.27 4.02,-39.3 1.59,-8.02 6.95,-15.52 16.04,-22.48 9.08,-6.97 24.32,-11.55 45.71,-13.74l153.95 -17.98c12.83,-2.16 21.92,-0.32 27.27,5.55 5.34,5.87 8.01,17.36 8.01,34.46 0,14.97 -0.54,27.8 -1.6,38.49l-84.99 951.17c-2.14,24.6 -6.42,42.52 -12.83,53.76 -6.42,11.24 -20.85,18.49 -43.3,21.75l-131.5 17.94c-16.04,2.17 -26.19,-1.55 -30.47,-11.16 -4.28,-9.62 -5.34,-32.06 -3.21,-67.35l16.04 -303.12c1.08,-14.98 -2.13,-25.12 -9.62,-30.45 -7.48,-5.33 -19.24,-7.98 -35.28,-7.94l-139.52 0.31c-12.84,0.03 -22.45,4.33 -28.87,12.9 -6.41,8.57 -10.16,18.74 -11.22,30.5l-16.04 283.89c0,3.21 -0.27,12.03 -0.81,26.46 -0.53,14.43 -5.34,25.67 -14.43,33.71 -9.09,8.04 -22.72,13.15 -40.89,15.33l-134.71 17.94z"/>
   <path class="fil1" d="M3179.22 0l607.24 0c46.98,0 82.99,31.5 94.47,76.46 -19.84,0.71 -37.64,1.35 -48.28,1.59 -66.29,1.5 -132.96,4.57 -199.28,6.05 -17.32,0.39 -87.56,5.73 -94.07,-1.02 -16.31,-16.92 -13.37,-34.44 -55.63,-35.38 -48.82,-1.07 -118.79,4.88 -171.35,9.12 -11.88,0.96 -14.81,-1.39 -17.79,9.88 23.17,5.75 133.87,-0.84 144.53,6.08l-1.98 6.61c-18.82,8.29 -119.1,0.44 -149.35,6.13l-1.73 6.53c24.45,2.07 135.74,-1.61 145.42,5.06 -1.54,13.43 -18.23,9.13 -30.73,9.51 -33.1,0.99 -93.52,-0.49 -119.48,2.45l-2.25 6.35c26.21,5.46 133.48,-1.72 145.51,6.28l-1.28 6.54c-10.51,4.04 -112.58,4.59 -138.54,5.18 -9.09,0.21 -9.18,-0.6 -11.38,8.37 18.61,7.3 159.23,12.52 188.23,11.26 19.84,-0.86 26.63,-6.26 40.31,-14.67 9.16,-5.63 25.8,-21.7 33.51,-23.23 11.09,-2.22 266.44,7.59 292.64,8.01 7.33,0.11 30.19,0.95 55.82,1.76 -0.16,1.34 -0.34,2.68 -0.54,4.03l-34.71 233.83 -340.77 9.67c-30.33,0.89 -10.99,-4.63 -31.28,-29.29 -13.24,-16.08 -31.53,-22.59 -64.91,-21.41 -27.05,0.97 -56.82,6.72 -81.05,16.39 -21.62,8.64 -50.06,27.77 -51,57.06 -1.31,40.82 66.12,54.8 119.31,50.96 30.26,-2.19 51.17,-18.31 68.82,-33.47 17.73,-15.22 7.64,-16.61 34.36,-15.96 74.49,1.8 150.41,5.34 224.48,6.62 14.68,0.25 81.48,3.42 115.6,2.74l-13.54 91.29 -21.08 140.5c-1.71,11.44 -10.39,21.03 -20.83,23.01 -10.43,1.96 -19.25,-4.31 -21.17,-15.07l-23.18 -130.21c-1.75,-9.86 -9.17,-15.97 -18.67,-15.38 -94.29,5.87 -547.4,1.84 -618.96,1.84 -63.76,0 -107.32,-58.02 -96.78,-128.96l17.13 -115.39c51.89,-1.79 209.32,-8.17 213.1,-5.82l1.43 3.02c0.46,1.59 0.27,2.01 0.57,3.5 3.72,18.5 41.61,14.1 67.14,14.1 26.97,0 244.33,-2.8 264.05,-46.58 4.01,-8.92 0.18,-10.13 -7.56,-10.39 -26.44,-0.93 -294.14,-2.96 -300.97,-0.84 -6.74,2.08 -8.48,7.18 -14.61,8.24l-91.79 -2.7c-17.21,-0.41 -88.03,-4.64 -125.22,-3.79l13 -87.52c10.52,-70.93 71.3,-128.95 135.07,-128.95z"/>
  </g>
 </g>
</svg>
